<?xml version="1.0" encoding="UTF-8" standalone="no"?>
<!-- Created with Inkscape (http://www.inkscape.org/) -->

<svg
   xmlns:dc="http://purl.org/dc/elements/1.1/"
   xmlns:cc="http://creativecommons.org/ns#"
   xmlns:rdf="http://www.w3.org/1999/02/22-rdf-syntax-ns#"
   xmlns:svg="http://www.w3.org/2000/svg"
   xmlns="http://www.w3.org/2000/svg"
   xmlns:sodipodi="http://sodipodi.sourceforge.net/DTD/sodipodi-0.dtd"
   xmlns:inkscape="http://www.inkscape.org/namespaces/inkscape"
   version="1.1"
   id="svg6547"
   width="80"
   height="165"
   viewBox="0 0 80 165"
   sodipodi:docname="seahorse.svg"
   inkscape:version="0.92.4 (5da689c313, 2019-01-14)">
  <metadata
     id="metadata6553">
    <rdf:RDF>
      <cc:Work
         rdf:about="">
        <dc:format>image/svg+xml</dc:format>
        <dc:type
           rdf:resource="http://purl.org/dc/dcmitype/StillImage" />
        <dc:title></dc:title>
      </cc:Work>
    </rdf:RDF>
  </metadata>
  <defs
     id="defs6551" />
  <sodipodi:namedview
     pagecolor="#ffffff"
     bordercolor="#666666"
     borderopacity="1"
     objecttolerance="10"
     gridtolerance="10"
     guidetolerance="10"
     inkscape:pageopacity="0"
     inkscape:pageshadow="2"
     inkscape:window-width="1280"
     inkscape:window-height="755"
     id="namedview6549"
     showgrid="false"
     inkscape:zoom="4.0000001"
     inkscape:cx="25.918112"
     inkscape:cy="123.11865"
     inkscape:window-x="-3"
     inkscape:window-y="1"
     inkscape:window-maximized="0"
     inkscape:current-layer="g7124" />
  <g
     id="g7124"
     style="stroke:#f4f700;stroke-opacity:1"
     transform="translate(-16.384777,-32.310138)">
    <g
       id="g7158">
      <path
         style="fill:none;stroke:#f4f700;stroke-width:1px;stroke-linecap:butt;stroke-linejoin:miter;stroke-opacity:1"
         d="m 53.740115,183.52156 c -2.26307,-3.21684 -4.347082,-6.43042 -1.06066,-9.54595 5.968133,-2.55763 7.2093,5.17315 5.967514,10.3658 -3.804564,9.84385 -12.640968,5.77333 -13.038582,6.25121 -7.995356,-3.58165 -12.861012,-16.75541 -0.353553,-32.88046 11.146245,-13.9363 22.052793,-14.87597 37.918601,-38.44893 C 90.66019,94.683917 81.89853,91.119096 75.306872,83.112393 67.015929,76.706144 50.260123,72.608494 51.265241,63.666956 c 1.098639,-3.577427 3.026773,-5.495865 6.010408,-5.303301 l 2.474874,1.414214 v 0 c -0.0011,5.186521 7.945581,2.425318 13.081475,2.474874 h 6.363961 c 1.509877,2.903065 7.754735,3.031371 10.960155,4.24264 l 4.949748,-8.485281 C 84.940028,62.339463 78.312896,53.9295 72.831998,41.393093 c 1.543693,-1.652955 1.596898,-2.547088 0.707107,-4.242641 v 0 c -2.170789,-0.571702 -2.469888,0.195783 -2.808492,2.050365 -0.117021,0.64094 0.201521,1.466756 -0.164542,2.336882 -4.143218,0.380557 -6.201028,-2.206506 -7.574888,-4.046962 -0.948756,-1.270976 -1.473258,-1.564713 -2.533553,-2.815159 -2.139408,0.05161 -3.732784,-0.679288 -6.717515,3.889088 -1.885541,1.767536 -3.145439,1.658142 -4.596194,2.12132 -0.653899,-1.227144 -1.054205,-2.910757 -2.828427,-2.12132 -2.153226,1.834669 -0.433457,2.701089 0,3.889087 -2.59973,1.8372 -4.336641,2.380172 -6.010408,2.828427 -0.455265,-2.068027 -1.312813,-2.526922 -2.474873,-1.767767 -1.186777,2.067561 0.160596,2.551278 0.707106,3.535534 -2.151994,3.453202 -3.974459,5.258758 -5.656854,6.363961 -1.178511,-1.911261 -2.357023,-1.854078 -3.535534,-0.707107 0.09794,1.981404 0.731714,3.197335 2.474874,2.828427 0.531548,3.653385 1.96617,7.30677 -1.767767,10.960155 -0.879426,-2.344263 -2.146683,-0.862573 -2.12132,1.06066 -0.05822,2.167998 1.416977,1.06033 2.828427,1.767767 2.343091,3.02949 3.30928,6.517947 3.535534,10.253049 -1.54863,-0.640987 -3.428749,-0.62107 -3.005204,1.679379 0.760929,2.422211 2.16657,0.33143 3.358757,-0.265166 2.301564,2.688293 2.765044,6.033044 1.767767,9.899495 0.656618,-0.01909 -6.658368,-1.388651 -17.677669,-4.949747 2.078443,3.474825 1.28112,7.26918 1.414213,10.960155 0.765929,4.568365 1.683917,4.963015 10.253048,7.424625 1.745213,1.83543 2.591155,1.30976 2.828428,11.93242 2.282124,5.54004 7.446952,3.9536 12.109204,4.94975 1.681095,0.23141 2.936668,1.52663 4.154252,2.91682 -0.350788,-4.52767 -1.511001,-13.05927 4.24264,-11.31371 3.317381,1.57762 2.990962,4.57227 2.121321,7.77817 -2.58031,-0.74431 -2.907212,0.3141 -3.181981,1.41422 -0.181911,1.57014 1.026486,1.94858 2.474874,2.12132 0.859655,1.51471 -0.300987,4.03958 -1.767767,6.71751 -1.178972,-0.004 -2.587086,-2.07057 -3.535534,0 -0.976287,2.3344 0.770504,2.24829 1.767767,2.82843 -0.278713,2.83359 -1.65287,4.29787 -2.828427,6.0104 -1.152532,-0.16792 -2.171318,-1.80704 -3.535534,0.35356 -0.241479,2.12998 0.790169,2.35028 1.414213,3.18198 -1.025727,1.2265 -2.049849,2.44978 -3.535533,4.59619 -0.938119,-1.28499 -1.807757,-2.74803 -3.889088,-1.06066 -0.818456,2.29241 0.842853,2.41502 1.767767,3.18198 -1.902185,4.30891 -2.90981,5.03958 -3.889087,5.65686 -0.914787,-0.71784 -1.701228,-3.10418 -2.828427,-1.06066 -1.433845,2.15524 0.430485,2.21164 1.414213,2.82842 -0.511273,1.69931 -0.823058,3.29889 -1.767766,5.21492 -0.886646,-0.19887 -2.071114,-1.20613 -2.651651,0.79548 0.07368,1.98129 0.74531,0.89749 1.237437,1.41422 -6.467027,18.11008 1.650283,25.08311 3.639087,26.91111 4.309788,3.62675 13.460034,9.17328 24.582684,-0.10356 8.908509,-14.85823 1.492777,-22.15938 -5.594354,-23.62557 -6.021115,0.57855 -9.474407,3.47492 -7.965675,11.58331 2.12132,3.93145 4.430141,3.57011 6.551461,3.97304 z"
         id="path6557"
         inkscape:connector-curvature="0"
         sodipodi:nodetypes="ccccccccccccccccccscsccccccccccccccccccccccccccccccccccccccccccccccccc" />
      <path
         style="fill:none;stroke:#f4f700;stroke-width:1px;stroke-linecap:butt;stroke-linejoin:miter;stroke-opacity:1"
         d="m 55.4375,43.125 c 0.645293,3.753208 0.564425,7.817628 2.25,11.125 -12.259085,0.359226 -9.752948,7.799839 -10.125,10.125 1.298325,6.025796 5.845137,10.138232 10.25,13.875 6.171903,4.634108 13.278305,9.03459 17.625,14.125 3.518204,5.151165 8.656341,8.39312 3.25,24.0625 -6.263325,11.71407 -13.841465,17.47087 -21.125,24.5625 -18.659025,16.93961 -18.384281,20.48984 -21.6875,28.625 -1.492784,5.99319 -0.710571,9.42881 -0.36963,10.99785 1.326195,6.10324 2.681188,10.15853 10.43213,12.56465 -1.885543,0.54424 -11.762951,-0.30268 -13.125,-15.8125 -0.430502,-5.43043 0.510819,-7.72527 1.1875,-10.625 4.875687,-10.9737 5.24615,-10.00855 7.0625,-12.875 5.347903,-6.86043 10.955456,-13.46121 17.625,-19 5.413229,-5.57222 10.701199,-11.30884 13.5,-20.3125 C 73.608061,106.7196 69.599924,99.763023 62.875,93.25 56.881677,86.262422 50.69455,80.728373 45,71.5 c -2.45151,-4.686619 -3.576228,-9.5921 0.6875,-15.625 0.973795,-0.939882 1.274899,-1.940918 5.75,-2.5625 1.018422,-0.399109 1.960716,-1.559508 2.8125,-3.625 z"
         id="path7104"
         inkscape:connector-curvature="0"
         sodipodi:nodetypes="ccccccccscccccccccccc" />
      <path
         style="opacity:0.8;fill:none;stroke:#f4f700;stroke-width:0.5;stroke-linecap:butt;stroke-linejoin:miter;stroke-miterlimit:4;stroke-dasharray:none;stroke-opacity:1"
         d="m 22.8125,90.375 c 5.496828,-0.115858 10.272096,0.55544 13.9375,2.4375 2.00463,1.608355 3.884509,3.295328 3.4375,6.375 4.882717,2.13964 5.85619,3.46294 6,6.875 3.015348,0.31219 5.077011,2.12303 6.9375,4.25 -5.061881,1.52574 -5.907539,5.88482 -6.0625,9.1875 -0.138899,-1.54167 -0.683821,-3.08333 -0.375,-4.625 0.144077,-1.4293 1.388787,-2.85411 2.125,-3.375 -1.70455,0.23234 -4.086927,3.62788 -6.25,6 1.076015,-2.47688 0.762002,-4.51938 4.25,-7.75 -1.55291,-0.86982 -3.825104,0.50752 -7.375,3.375 1.092311,-2.0982 2.170638,-3.72421 4.875,-5.5 -2.427071,-0.3126 -5.037898,0.84485 -7.625,1.8125 1.573137,-1.70973 3.048484,-3.46136 5.75,-4.6875 -0.423912,-0.65891 -7.540246,-0.094 -6.9375,-0.125 1.75,-1.46291 3.5,-1.36203 5.25,-1.9375 -10.806908,-0.18632 -10.54228,-0.14584 -11.4375,-0.5 1.971297,-1.1322 5.57552,-1.57346 7.6875,-1.875 -3.981752,-1.088656 -8.061241,-1.590885 -12.375,-0.6875 2.23591,-1.785395 7.222188,-2.863363 10.8125,-3.0625 -2.265603,-1.803223 -5.966472,-2.068661 -10.5625,-1.375 1.845593,-1.430944 4.47741,-2.383316 10.125,-1.5 -3.839546,-1.475757 -7.849137,-2.668104 -12.1875,-3.3125 z"
         id="path7106"
         inkscape:connector-curvature="0"
         sodipodi:nodetypes="ccccccccccccccccccccccc" />
      <circle
         style="opacity:0.8;fill:none;fill-opacity:1;stroke:#f4f700;stroke-width:0.5;stroke-miterlimit:4;stroke-dasharray:none;stroke-opacity:1"
         id="path7112"
         cx="69.75"
         cy="51"
         r="4.5314779" />
      <ellipse
         style="opacity:0.8;fill:none;fill-opacity:1;stroke:#f4f700;stroke-width:0.45244995;stroke-miterlimit:4;stroke-dasharray:none;stroke-opacity:1"
         id="path7114"
         cx="75.814255"
         cy="44.706551"
         rx="1.148775"
         ry="2.7112751"
         transform="rotate(4.9347733)" />
      <circle
         style="opacity:0.8;fill:none;fill-opacity:1;stroke:#f4f700;stroke-width:0.5;stroke-miterlimit:4;stroke-dasharray:none;stroke-opacity:1"
         id="path7116"
         cx="71.8125"
         cy="50.625"
         r="0.5625" />
    </g>
  </g>
</svg>
